HIERARCHY
ROOT Hips
{
	OFFSET -0.001795 -0.223333 0.028219
	CHANNELS 6 Xposition Yposition Zposition Zrotation Yrotation Xrotation 
	JOINT LeftUpLeg
	{
		OFFSET 0.069520 -0.091406 -0.006815
		CHANNELS 3 Zrotation Yrotation Xrotation
		JOINT LeftLeg
		{
			OFFSET 0.034277 -0.375199 -0.004496
			CHANNELS 3 Zrotation Yrotation Xrotation
			JOINT LeftFoot
			{
				OFFSET -0.013596 -0.397961 -0.043693
				CHANNELS 3 Zrotation Yrotation Xrotation
				JOINT LeftToe
				{
					OFFSET 0.026358 -0.055791 0.119288
					CHANNELS 3 Zrotation Yrotation Xrotation
					End Site
					{
						OFFSET 0.000000 0.000000 0.000000
					}
				}
			}
		}
	}
	JOINT RightUpLeg
	{
		OFFSET -0.067670 -0.090522 -0.004320
		CHANNELS 3 Zrotation Yrotation Xrotation
		JOINT RightLeg
		{
			OFFSET -0.038290 -0.382569 -0.008850
			CHANNELS 3 Zrotation Yrotation Xrotation
			JOINT RightFoot
			{
				OFFSET 0.015774 -0.398415 -0.042312
				CHANNELS 3 Zrotation Yrotation Xrotation
				JOINT RightToe
				{
					OFFSET -0.025372 -0.048144 0.123348
					CHANNELS 3 Zrotation Yrotation Xrotation
					End Site
					{
						OFFSET 0.000000 0.000000 0.000000
					}
				}
			}
		}
	}
	JOINT Spine
	{
		OFFSET -0.002533 0.108963 -0.026696
		CHANNELS 3 Zrotation Yrotation Xrotation
		JOINT Spine1
		{
			OFFSET 0.005487 0.135180 0.001092
			CHANNELS 3 Zrotation Yrotation Xrotation
			JOINT Spine2
			{
				OFFSET 0.001457 0.052922 0.025425
				CHANNELS 3 Zrotation Yrotation Xrotation
				JOINT Neck
				{
					OFFSET -0.002778 0.213870 -0.042857
					CHANNELS 3 Zrotation Yrotation Xrotation
					JOINT Head
					{
						OFFSET 0.005152 0.064970 0.051349
						CHANNELS 3 Zrotation Yrotation Xrotation
						End Site
						{
							OFFSET 0.000000 0.000000 0.000000
						}
					}
				}
				JOINT LeftShoulder
				{
					OFFSET 0.078845 0.121749 -0.034090
					CHANNELS 3 Zrotation Yrotation Xrotation
					JOINT LeftArm
					{
						OFFSET 0.090977 0.030469 -0.008868
						CHANNELS 3 Zrotation Yrotation Xrotation
						JOINT LeftForeArm
						{
							OFFSET 0.259612 -0.012772 -0.027456
							CHANNELS 3 Zrotation Yrotation Xrotation
							JOINT LeftHand
							{
								OFFSET 0.249234 0.008986 -0.001171
								CHANNELS 3 Zrotation Yrotation Xrotation
								End Site
								{
									OFFSET 0.000000 0.000000 0.000000
								}
							}
						}
					}
				}
				JOINT RightShoulder
				{
					OFFSET -0.081759 0.118833 -0.038615
					CHANNELS 3 Zrotation Yrotation Xrotation
					JOINT RightArm
					{
						OFFSET -0.096012 0.032551 -0.009143
						CHANNELS 3 Zrotation Yrotation Xrotation
						JOINT RightForeArm
						{
							OFFSET -0.253742 -0.013329 -0.021401
							CHANNELS 3 Zrotation Yrotation Xrotation
							JOINT RightHand
							{
								OFFSET -0.255298 0.007772 -0.005559
								CHANNELS 3 Zrotation Yrotation Xrotation
								End Site
								{
									OFFSET 0.000000 0.000000 0.000000
								}
							}
						}
					}
				}
			}
		}
	}
}
MOTION
Frames: 7
Frame Time: 0.05000000
0.000000 0.766527 0.000000 2.976361 -13.216426 26.518564 9.873051 3.740813 -82.100468 -19.796394 26.466321 90.151845 15.628332 30.295730 1.153110 0.000000 0.000000 0.000000 -19.508236 -0.792887 -65.454072 22.189171 -15.618608 69.470449 -6.138257 -15.245544 -26.218548 0.000000 0.000000 0.000000 -3.167206 0.899104 -16.687564 0.954719 0.065019 -15.473665 -1.925366 -5.178461 42.568330 -3.293439 1.860502 -14.571116 0.000000 0.000000 0.000000 23.954161 -0.773407 -1.408514 -44.238189 -11.588657 0.100468 39.748635 -46.379951 -11.485227 0.000000 0.000000 0.000000 -15.492272 -1.891644 1.481115 68.040722 5.738109 -8.757517 40.889198 51.858485 21.803867 0.000000 0.000000 0.000000 
0.772914 0.740557 1.851685 2.923849 1.386861 32.775245 19.350180 8.839047 -94.752918 -30.137514 26.665245 70.106410 20.959137 38.706836 8.254766 0.000000 0.000000 0.000000 -21.028369 -4.209293 -66.222926 14.420415 -16.256607 76.234989 -5.339794 -8.044636 -25.743574 0.000000 0.000000 0.000000 -6.279793 1.327330 -21.068476 1.356172 0.010479 -12.287408 -0.937674 -3.363912 43.814403 -3.847033 3.438565 -7.540134 0.000000 0.000000 0.000000 17.702674 -2.587580 1.045055 -45.905883 -14.120185 -1.802380 35.372671 -45.012518 -11.724696 0.000000 0.000000 0.000000 -13.249748 8.713441 2.287306 69.934262 21.900115 5.705410 1.200903 52.779350 4.551760 0.000000 0.000000 0.000000 
2.125278 0.722052 3.466914 1.779357 20.276613 35.975841 33.864509 16.948399 -99.482883 -43.381581 25.411684 43.254704 23.163540 42.604931 16.390086 0.000000 0.000000 0.000000 -17.880707 -4.821918 -61.284286 4.708441 -14.016012 80.261210 -4.625078 7.238010 -31.138174 0.000000 0.000000 0.000000 -8.287190 1.541037 -21.264040 2.133334 -0.206624 -8.834592 0.443511 -2.388866 42.652793 -3.698515 4.077931 -7.367442 0.000000 0.000000 0.000000 10.736959 -4.772004 2.854145 -42.560004 -17.625949 -2.400557 46.202853 -45.176874 -19.838143 0.000000 0.000000 0.000000 -13.919248 12.888097 2.069022 68.473721 33.833906 17.539615 -26.535026 45.544508 -5.900838 0.000000 0.000000 0.000000 
4.164837 0.709229 4.625510 0.006030 41.000249 39.756278 53.713255 23.832936 -92.623610 -50.176518 18.453106 17.702692 31.200174 48.867029 36.714174 0.000000 0.000000 0.000000 -17.713735 -4.726991 -50.254344 -1.275840 -14.502815 73.384719 -5.352654 16.009607 -41.898110 0.000000 0.000000 0.000000 -8.165041 1.388014 -23.050423 1.440831 0.081119 -8.010056 0.888807 2.186689 43.465580 -1.617646 3.050440 -5.330347 0.000000 0.000000 0.000000 10.808662 -8.823307 5.036279 -39.233664 -25.607899 -1.625347 49.274756 -40.752393 -24.055409 0.000000 0.000000 0.000000 -15.329958 17.396323 1.997834 61.659548 41.006918 24.141469 -38.325268 38.263954 -7.779254 0.000000 0.000000 0.000000 
6.796521 0.706481 4.897050 -6.017508 65.654550 39.401383 82.701408 25.266257 -77.967860 -58.835030 11.056211 -9.416857 50.856421 54.518638 63.159093 0.000000 0.000000 0.000000 -16.052496 -3.890640 -36.276425 -2.030458 -14.816333 55.572223 1.292182 17.762922 -31.654191 0.000000 0.000000 0.000000 -6.817234 0.404440 -25.335018 -1.458378 0.790422 -5.858507 1.935670 4.738969 44.924739 -2.693109 2.480672 -0.124447 0.000000 0.000000 0.000000 10.559292 -14.212968 6.744869 -33.227540 -31.342435 -1.492832 58.285726 -35.314419 -31.570137 0.000000 0.000000 0.000000 -15.872625 22.938665 3.225132 43.358180 46.337365 20.584972 -50.817175 29.205632 -7.360570 0.000000 0.000000 0.000000 
9.531869 0.719709 4.017002 -126.082588 84.744097 -75.987482 115.158438 16.900138 -67.015357 -62.799834 4.521700 -37.484836 79.033455 55.652940 91.029854 0.000000 0.000000 0.000000 -10.378763 -3.888951 -25.963536 -1.295186 -11.171832 34.834116 7.230158 15.687290 -22.817601 0.000000 0.000000 0.000000 -8.099288 -2.264260 -23.621534 0.734508 -0.739212 -3.417523 -0.958224 6.240147 43.662941 -5.433221 1.563757 3.723076 0.000000 0.000000 0.000000 8.921661 -20.634887 7.205634 -21.372987 -38.350710 -3.141602 54.761883 -28.390102 -30.147934 0.000000 0.000000 0.000000 -14.210185 23.304719 4.882420 28.757655 48.312045 16.188461 -56.351020 22.262298 -4.880833 0.000000 0.000000 0.000000 
11.777298 0.739605 2.203144 -165.574174 60.786585 -110.189977 159.161057 -7.940414 -60.158454 -39.845890 9.925833 -81.486432 117.875415 36.553073 132.412633 0.000000 0.000000 0.000000 -4.148805 -5.360973 -18.654107 -3.449162 -6.026351 18.419297 14.999225 15.707595 -3.580402 0.000000 0.000000 0.000000 -8.700265 -6.296725 -17.025476 -1.076002 -2.795072 -1.606013 -0.066348 9.519029 38.257082 -13.718360 0.948415 7.292103 0.000000 0.000000 0.000000 1.393455 -34.111243 2.660454 -2.968482 -29.521230 -5.180917 43.359998 -26.119836 -21.960774 0.000000 0.000000 0.000000 -9.446787 25.917707 13.140050 10.175890 42.490743 6.685605 -53.355509 14.056908 -1.449348 0.000000 0.000000 0.000000 
